<svg xmlns="http://www.w3.org/2000/svg" viewBox="14 8 172 172"><rect x="14" y="8" width="172" height="172" fill="#ee6fae"/>
      <!-- tail -->
      <path d="M140 176 C186 176 190 130 174 118" stroke="#5fa8e8" stroke-width="16" fill="none" stroke-linecap="round"/>
      <path d="M170 150 l14 -6 M176 132 l12 -6" stroke="#2f6fb8" stroke-width="5" stroke-linecap="round"/>
      <!-- feet -->
      <ellipse cx="72" cy="192" rx="20" ry="9" fill="#5fa8e8"/><ellipse cx="128" cy="192" rx="20" ry="9" fill="#5fa8e8"/>
      <!-- body -->
      <ellipse cx="100" cy="166" rx="46" ry="32" fill="#5fa8e8"/>
      <ellipse cx="100" cy="172" rx="26" ry="24" fill="#e8f4ff"/>
      <path d="M58 156 l12 4 M56 172 l12 2 M142 156 l-12 4 M144 172 l-12 2" stroke="#2f6fb8" stroke-width="5" stroke-linecap="round"/>
      <!-- ears -->
      <circle cx="44" cy="90" r="17" fill="#5fa8e8"/><circle cx="156" cy="90" r="17" fill="#5fa8e8"/>
      <circle cx="44" cy="92" r="9" fill="#ffb3c7"/><circle cx="156" cy="92" r="9" fill="#ffb3c7"/>
      <!-- head -->
      <ellipse cx="100" cy="118" rx="60" ry="44" fill="#5fa8e8"/>
      <path d="M42 108 l14 4 M42 122 l14 -2 M158 108 l-14 4 M158 122 l-14 -2" stroke="#2f6fb8" stroke-width="5" stroke-linecap="round"/>
      <path d="M100 74 l0 14 M84 76 l4 12 M116 76 l-4 12" stroke="#2f6fb8" stroke-width="5" stroke-linecap="round"/>
      <!-- muzzle -->
      <ellipse cx="100" cy="134" rx="30" ry="21" fill="#f4faff"/>
      <!-- derpy eyes -->
      <circle cx="72" cy="110" r="17" fill="#fff"/><circle cx="130" cy="112" r="13" fill="#fff"/>
      <circle cx="79" cy="113" r="8" fill="#2a2140"/><circle cx="123" cy="115" r="6.5" fill="#2a2140"/>
      <circle cx="81.5" cy="110" r="2.8" fill="#fff"/><circle cx="124.5" cy="112.5" r="2.2" fill="#fff"/>
      <!-- nose + goofy mouth with tongue -->
      <path d="M92 124 Q100 121 108 124 Q104 132 100 132 Q96 132 92 124 Z" fill="#ff7a9a"/>
      <path d="M84 138 Q100 152 116 138" stroke="#2a2140" stroke-width="4" fill="none" stroke-linecap="round"/>
      <path d="M100 132 L100 142" stroke="#2a2140" stroke-width="3.5" stroke-linecap="round"/>
      <path d="M99 146 Q98 162 110 160 Q118 156 114 146 Q108 150 99 146 Z" fill="#ff5f86"/>
      <path d="M107 148 L107 156" stroke="#d83a66" stroke-width="2" stroke-linecap="round"/>
      <circle cx="58" cy="132" r="6" fill="#ff9a9a" opacity=".55"/><circle cx="142" cy="132" r="6" fill="#ff9a9a" opacity=".55"/>
      <!-- white cowboy hat -->
      <path d="M64 84 C62 44 66 26 82 22 C92 30 108 30 118 22 C134 26 138 44 136 84 Z" fill="#fffdf6" stroke="#e6dcc6" stroke-width="2"/>
      <path d="M80 26 Q100 44 120 26" stroke="#e6dcc6" stroke-width="3" fill="none" stroke-linecap="round"/>
      <path d="M64 70 Q100 82 136 70 L136 80 Q100 92 64 80 Z" fill="#c98a4b"/>
      <circle cx="100" cy="80" r="4" fill="#ffd23f"/>
      <path d="M26 88 C18 74 40 74 64 80 Q100 92 136 80 C160 74 182 74 174 88 C166 100 130 100 100 100 C70 100 34 100 26 88 Z" fill="#fffdf6" stroke="#e6dcc6" stroke-width="2"/>
    </svg>
