<svg viewBox="0 0 680 460" xmlns="http://www.w3.org/2000/svg">
<rect width="680" height="460" fill="#fff"/>
<circle cx="340" cy="190" r="205" fill="#e6e2f0"/>
<path d="M150 232 Q190 205 240 220 Q270 200 300 222 L150 232Z" fill="#f4f2f8"/>
<path d="M410 300 Q440 262 480 282 Q520 270 535 300Z" fill="#f4f2f8"/>
<g fill="#ee5c97" font-family="'Hiragino Sans','Noto Sans JP',sans-serif" font-weight="900" font-size="104" text-anchor="middle">
<text x="135" y="200">忍</text><text x="135" y="300">者</text></g>
<g fill="#ee5c97"><g id="f"><circle cx="558" cy="130" r="9"/><circle cx="558" cy="162" r="9"/><circle cx="542" cy="146" r="9"/><circle cx="574" cy="146" r="9"/></g><circle cx="558" cy="146" r="5" fill="#f7c948"/>
<ellipse cx="150" cy="4" rx="12" ry="9"/><ellipse cx="575" cy="60" rx="8" ry="6"/><ellipse cx="605" cy="325" rx="7" ry="5"/><ellipse cx="76" cy="353" rx="7" ry="5"/><ellipse cx="72" cy="90" rx="4" ry="3"/></g>
<g fill="none" stroke="#3b2c4d" stroke-width="2" stroke-linecap="round"><path d="M200 265 Q190 310 215 335"/><path d="M440 12 Q490 0 530 14"/></g>
<path d="M575 225 Q590 330 548 420 L515 420 Q505 330 575 225Z" fill="#b6c43a"/>
<path d="M560 255 Q555 340 535 400" stroke="#8d9a24" stroke-width="3" fill="none"/>
<path d="M478 270 Q462 292 486 302 Q506 304 508 286Z" fill="#ee5c97"/>
<path d="M490 300 Q510 330 520 350" stroke="#7a8a2a" stroke-width="2" fill="none"/>
<path d="M480 345 Q500 380 470 420 L545 420 Q540 380 500 345Z" fill="#5b3a85"/>
<path d="M115 420 Q120 345 185 342 Q240 345 262 420Z" fill="#b6c43a"/>
<circle cx="150" cy="372" r="18" fill="#fff"/><circle cx="150" cy="372" r="6" fill="#f7c948"/>
<circle cx="192" cy="405" r="10" fill="#fff"/><circle cx="192" cy="405" r="4" fill="#f7c948"/>
<path d="M70 420 Q72 385 100 384 Q135 388 133 420Z" fill="#5b3a85"/>
<path d="M55 421 H585" stroke="#3b2c4d" stroke-width="2"/><path d="M237 450 H327" stroke="#3b2c4d" stroke-width="2"/>

<!-- back leg -->
<g stroke-linecap="round" stroke-linejoin="round" fill="none">
<path d="M338 242 L398 322" stroke="#3b2159" stroke-width="42"/><path d="M336 240 L396 320" stroke="#5b3a85" stroke-width="36"/>
<path d="M398 322 L448 384" stroke="#3b2159" stroke-width="34"/><path d="M397 320 L446 382" stroke="#4f3078" stroke-width="28"/>
<path d="M432 366 L450 390" stroke="#2d1b45" stroke-width="32"/>
</g>
<path d="M436 384 Q470 392 486 414 L492 421 L446 421 Q438 404 430 392Z" fill="#2d1b45"/>
<path d="M470 400 L476 421" stroke="#5b3a85" stroke-width="2"/>
<!-- front leg -->
<g stroke-linecap="round" stroke-linejoin="round" fill="none">
<path d="M308 238 L252 282" stroke="#3b2159" stroke-width="44"/><path d="M306 235 L250 279" stroke="#5b3a85" stroke-width="38"/>
<path d="M252 282 L298 316" stroke="#3b2159" stroke-width="36"/><path d="M251 280 L297 314" stroke="#5b3a85" stroke-width="30"/>
<path d="M286 306 L300 318" stroke="#2d1b45" stroke-width="34"/>
</g>
<path d="M284 312 L322 316 Q338 326 340 336 L318 344 L306 378 Q292 360 284 340Z" fill="#2d1b45"/>
<path d="M318 344 L304 340" stroke="#5b3a85" stroke-width="2"/>
<!-- scarf -->
<path d="M360 148 C402 150 432 126 448 88 C460 108 452 138 430 154 C410 170 388 172 366 174Z" fill="#ee5c97"/>
<path d="M394 160 C420 152 440 138 450 118 C452 150 428 176 396 180Z" fill="#d9387f"/>
<!-- torso -->
<path d="M250 150 Q304 126 370 160 L358 226 L284 228 Q270 190 250 150Z" fill="#5b3a85"/>
<path d="M284 226 Q272 190 252 152 Q262 190 290 228Z" fill="#3b2159" opacity=".6"/>
<path d="M282 150 L322 196 L356 160 L346 154 L322 180 L292 146Z" fill="#3b2159"/>
<path d="M300 160 L322 186 L340 164" stroke="#7a56a8" stroke-width="3" fill="none"/>
<!-- arms -->
<g stroke-linecap="round" stroke-linejoin="round" fill="none">
<path d="M264 160 L224 122" stroke="#3b2159" stroke-width="32"/><path d="M263 158 L222 120" stroke="#5b3a85" stroke-width="27"/>
<path d="M224 122 L202 74" stroke="#3b2159" stroke-width="28"/><path d="M223 120 L201 72" stroke="#5b3a85" stroke-width="23"/>
<path d="M205 82 L200 70" stroke="#2d1b45" stroke-width="27"/>
<path d="M346 172 L402 190" stroke="#3b2159" stroke-width="32"/><path d="M346 170 L402 188" stroke="#5b3a85" stroke-width="27"/>
<path d="M402 190 L440 208" stroke="#3b2159" stroke-width="28"/><path d="M402 188 L440 206" stroke="#5b3a85" stroke-width="23"/>
<path d="M436 204 L443 207" stroke="#2d1b45" stroke-width="27"/>
</g>
<!-- fist (raised) -->
<circle cx="196" cy="54" r="14" fill="#d29a70"/><path d="M186 50 Q196 44 206 50 M186 57 Q196 51 206 57" stroke="#a8754f" stroke-width="2" fill="none" stroke-linecap="round"/><path d="M205 62 Q214 54 210 46" stroke="#d29a70" stroke-width="8" fill="none" stroke-linecap="round"/>
<!-- open hand -->
<g stroke="#d29a70" stroke-linecap="round" fill="none"><path d="M458 206 L466 182" stroke-width="9"/><path d="M468 204 L494 186" stroke-width="9"/><path d="M470 212 L503 206" stroke-width="9"/><path d="M468 220 L500 226" stroke-width="8"/><path d="M462 226 L486 242" stroke-width="7"/></g>
<ellipse cx="458" cy="214" rx="15" ry="17" fill="#d29a70"/>
<!-- sash -->
<rect x="276" y="212" width="88" height="17" rx="6" fill="#ee5c97"/><rect x="276" y="222" width="88" height="7" rx="3" fill="#d9387f"/>
<path d="M344 226 Q356 252 340 280 L326 274 Q340 252 328 226Z" fill="#ee5c97"/>
<!-- hood + head -->
<path d="M262 40 Q250 10 276 2 Q272 22 290 20Z" fill="#4a2c70"/>
<ellipse cx="320" cy="84" rx="68" ry="74" fill="#4a2c70"/>
<path d="M262 70 Q260 50 292 46 L358 50 Q384 54 384 80 L382 104 Q380 130 350 132 L296 132 Q264 130 262 100Z" fill="#d29a70"/>
<ellipse cx="297" cy="95" rx="15" ry="17" fill="#fff"/><ellipse cx="355" cy="95" rx="15" ry="17" fill="#fff"/>
<circle cx="301" cy="97" r="11" fill="#4a2a18"/><circle cx="359" cy="97" r="11" fill="#4a2a18"/>
<circle cx="302" cy="98" r="6" fill="#1a0f0a"/><circle cx="360" cy="98" r="6" fill="#1a0f0a"/>
<circle cx="306" cy="92" r="3.5" fill="#fff"/><circle cx="364" cy="92" r="3.5" fill="#fff"/><circle cx="298" cy="103" r="1.8" fill="#fff"/><circle cx="356" cy="103" r="1.8" fill="#fff"/>
<path d="M281 90 Q297 74 314 86" stroke="#1a0f0a" stroke-width="4" fill="none" stroke-linecap="round"/><path d="M338 86 Q355 74 372 90" stroke="#1a0f0a" stroke-width="4" fill="none" stroke-linecap="round"/>
<path d="M279 93 L272 86 M374 93 L381 86" stroke="#1a0f0a" stroke-width="3" stroke-linecap="round"/>
<path d="M274 72 L314 82 L312 77 L276 66Z" fill="#2a1810"/><path d="M376 70 L336 82 L338 77 L374 64Z" fill="#2a1810"/>
<path d="M256 112 Q300 126 388 108 L392 124 Q384 172 330 172 Q270 170 258 130Z" fill="#5b3a85"/>
<path d="M300 126 Q312 150 340 156" stroke="#3b2159" stroke-width="4" fill="none" stroke-linecap="round"/>
<path d="M260 36 L388 44 L390 66 L262 60Z" fill="#ee5c97"/><path d="M262 54 L390 60 L390 66 L262 60Z" fill="#d9387f"/>
<rect x="300" y="32" width="58" height="30" rx="6" fill="#dde2ea" stroke="#9aa4b2" stroke-width="3" transform="rotate(4 329 47)"/>
<path d="M329 38 L332 46 L340 49 L332 52 L329 60 L326 52 L318 49 L326 46Z" fill="#7b4bd1" transform="rotate(4 329 47)"/>
</svg>
